<?xml version="1.0" encoding="utf-8" standalone="no"?>
<!DOCTYPE svg PUBLIC "-//W3C//DTD SVG 1.1//EN"
  "http://www.w3.org/Graphics/SVG/1.1/DTD/svg11.dtd">
<svg xmlns:xlink="http://www.w3.org/1999/xlink" width="504pt" height="288pt" viewBox="0 0 504 288" xmlns="http://www.w3.org/2000/svg" version="1.1">
 <metadata>
  <rdf:RDF xmlns:dc="http://purl.org/dc/elements/1.1/" xmlns:cc="http://creativecommons.org/ns#" xmlns:rdf="http://www.w3.org/1999/02/22-rdf-syntax-ns#">
   <cc:Work>
    <dc:type rdf:resource="http://purl.org/dc/dcmitype/StillImage"/>
    <dc:date>2026-06-30T15:55:08.592887</dc:date>
    <dc:format>image/svg+xml</dc:format>
    <dc:creator>
     <cc:Agent>
      <dc:title>Matplotlib v3.10.7, https://matplotlib.org/</dc:title>
     </cc:Agent>
    </dc:creator>
   </cc:Work>
  </rdf:RDF>
 </metadata>
 <defs>
  <style type="text/css">*{stroke-linejoin: round; stroke-linecap: butt}</style>
 </defs>
 <g id="figure_1">
  <g id="patch_1">
   <path d="M 0 288 
L 504 288 
L 504 0 
L 0 0 
z
" style="fill: #ffffff"/>
  </g>
  <g id="axes_1">
   <g id="patch_2">
    <path d="M 55.55 260.12 
L 493.2 260.12 
L 493.2 26.88 
L 55.55 26.88 
z
" style="fill: #ffffff"/>
   </g>
   <g id="patch_3">
    <path d="M 75.443182 260.12 
L 93.527893 260.12 
L 93.527893 234.205021 
L 75.443182 234.205021 
z
" clip-path="url(#p98c3d38d2f)" style="fill: #1f77b4"/>
   </g>
   <g id="patch_4">
    <path d="M 120.654959 260.12 
L 138.739669 260.12 
L 138.739669 243.297479 
L 120.654959 243.297479 
z
" clip-path="url(#p98c3d38d2f)" style="fill: #1f77b4"/>
   </g>
   <g id="patch_5">
    <path d="M 165.866736 260.12 
L 183.951446 260.12 
L 183.951446 241.703473 
L 165.866736 241.703473 
z
" clip-path="url(#p98c3d38d2f)" style="fill: #1f77b4"/>
   </g>
   <g id="patch_6">
    <path d="M 211.078512 260.12 
L 229.163223 260.12 
L 229.163223 242.37502 
L 211.078512 242.37502 
z
" clip-path="url(#p98c3d38d2f)" style="fill: #1f77b4"/>
   </g>
   <g id="patch_7">
    <path d="M 256.290289 260.12 
L 274.375 260.12 
L 274.375 237.130935 
L 256.290289 237.130935 
z
" clip-path="url(#p98c3d38d2f)" style="fill: #1f77b4"/>
   </g>
   <g id="patch_8">
    <path d="M 301.502066 260.12 
L 319.586777 260.12 
L 319.586777 239.622086 
L 301.502066 239.622086 
z
" clip-path="url(#p98c3d38d2f)" style="fill: #1f77b4"/>
   </g>
   <g id="patch_9">
    <path d="M 346.713843 260.12 
L 364.798554 260.12 
L 364.798554 42.592806 
L 346.713843 42.592806 
z
" clip-path="url(#p98c3d38d2f)" style="fill: #1f77b4"/>
   </g>
   <g id="patch_10">
    <path d="M 391.92562 260.12 
L 410.010331 260.12 
L 410.010331 223.398389 
L 391.92562 223.398389 
z
" clip-path="url(#p98c3d38d2f)" style="fill: #1f77b4"/>
   </g>
   <g id="patch_11">
    <path d="M 437.137397 260.12 
L 455.222107 260.12 
L 455.222107 41.3673 
L 437.137397 41.3673 
z
" clip-path="url(#p98c3d38d2f)" style="fill: #1f77b4"/>
   </g>
   <g id="patch_12">
    <path d="M 93.527893 260.12 
L 111.612603 260.12 
L 111.612603 253.724377 
L 93.527893 253.724377 
z
" clip-path="url(#p98c3d38d2f)" style="fill: #ff7f0e"/>
   </g>
   <g id="patch_13">
    <path d="M 138.739669 260.12 
L 156.82438 260.12 
L 156.82438 253.02679 
L 138.739669 253.02679 
z
" clip-path="url(#p98c3d38d2f)" style="fill: #ff7f0e"/>
   </g>
   <g id="patch_14">
    <path d="M 183.951446 260.12 
L 202.036157 260.12 
L 202.036157 253.270305 
L 183.951446 253.270305 
z
" clip-path="url(#p98c3d38d2f)" style="fill: #ff7f0e"/>
   </g>
   <g id="patch_15">
    <path d="M 229.163223 260.12 
L 247.247934 260.12 
L 247.247934 250.639378 
L 229.163223 250.639378 
z
" clip-path="url(#p98c3d38d2f)" style="fill: #ff7f0e"/>
   </g>
   <g id="patch_16">
    <path d="M 274.375 260.12 
L 292.459711 260.12 
L 292.459711 252.720607 
L 274.375 252.720607 
z
" clip-path="url(#p98c3d38d2f)" style="fill: #ff7f0e"/>
   </g>
   <g id="patch_17">
    <path d="M 319.586777 260.12 
L 337.671488 260.12 
L 337.671488 242.367601 
L 319.586777 242.367601 
z
" clip-path="url(#p98c3d38d2f)" style="fill: #ff7f0e"/>
   </g>
   <g id="patch_18">
    <path d="M 364.798554 260.12 
L 382.883264 260.12 
L 382.883264 37.986667 
L 364.798554 37.986667 
z
" clip-path="url(#p98c3d38d2f)" style="fill: #ff7f0e"/>
   </g>
   <g id="patch_19">
    <path d="M 410.010331 260.12 
L 428.095041 260.12 
L 428.095041 250.40336 
L 410.010331 250.40336 
z
" clip-path="url(#p98c3d38d2f)" style="fill: #ff7f0e"/>
   </g>
   <g id="patch_20">
    <path d="M 455.222107 260.12 
L 473.306818 260.12 
L 473.306818 49.239615 
L 455.222107 49.239615 
z
" clip-path="url(#p98c3d38d2f)" style="fill: #ff7f0e"/>
   </g>
   <g id="matplotlib.axis_1">
    <g id="xtick_1">
     <g id="line2d_1">
      <defs>
       <path id="mfaecddd00d" d="M 0 0 
L 0 3.5 
" style="stroke: #000000; stroke-width: 0.8"/>
      </defs>
      <g>
       <use xlink:href="#mfaecddd00d" x="93.527893" y="260.12" style="stroke: #000000; stroke-width: 0.8"/>
      </g>
     </g>
     <g id="text_1">
      <text style="font-size: 10px; font-family: 'DejaVu Sans'; text-anchor: middle" x="93.527893" y="274.718437" transform="rotate(-0 93.527893 274.718437)">E1</text>
     </g>
    </g>
    <g id="xtick_2">
     <g id="line2d_2">
      <g>
       <use xlink:href="#mfaecddd00d" x="138.739669" y="260.12" style="stroke: #000000; stroke-width: 0.8"/>
      </g>
     </g>
     <g id="text_2">
      <text style="font-size: 10px; font-family: 'DejaVu Sans'; text-anchor: middle" x="138.739669" y="274.718437" transform="rotate(-0 138.739669 274.718437)">E2</text>
     </g>
    </g>
    <g id="xtick_3">
     <g id="line2d_3">
      <g>
       <use xlink:href="#mfaecddd00d" x="183.951446" y="260.12" style="stroke: #000000; stroke-width: 0.8"/>
      </g>
     </g>
     <g id="text_3">
      <text style="font-size: 10px; font-family: 'DejaVu Sans'; text-anchor: middle" x="183.951446" y="274.718437" transform="rotate(-0 183.951446 274.718437)">E3</text>
     </g>
    </g>
    <g id="xtick_4">
     <g id="line2d_4">
      <g>
       <use xlink:href="#mfaecddd00d" x="229.163223" y="260.12" style="stroke: #000000; stroke-width: 0.8"/>
      </g>
     </g>
     <g id="text_4">
      <text style="font-size: 10px; font-family: 'DejaVu Sans'; text-anchor: middle" x="229.163223" y="274.718437" transform="rotate(-0 229.163223 274.718437)">nu12</text>
     </g>
    </g>
    <g id="xtick_5">
     <g id="line2d_5">
      <g>
       <use xlink:href="#mfaecddd00d" x="274.375" y="260.12" style="stroke: #000000; stroke-width: 0.8"/>
      </g>
     </g>
     <g id="text_5">
      <text style="font-size: 10px; font-family: 'DejaVu Sans'; text-anchor: middle" x="274.375" y="274.718437" transform="rotate(-0 274.375 274.718437)">nu13</text>
     </g>
    </g>
    <g id="xtick_6">
     <g id="line2d_6">
      <g>
       <use xlink:href="#mfaecddd00d" x="319.586777" y="260.12" style="stroke: #000000; stroke-width: 0.8"/>
      </g>
     </g>
     <g id="text_6">
      <text style="font-size: 10px; font-family: 'DejaVu Sans'; text-anchor: middle" x="319.586777" y="274.718437" transform="rotate(-0 319.586777 274.718437)">nu23</text>
     </g>
    </g>
    <g id="xtick_7">
     <g id="line2d_7">
      <g>
       <use xlink:href="#mfaecddd00d" x="364.798554" y="260.12" style="stroke: #000000; stroke-width: 0.8"/>
      </g>
     </g>
     <g id="text_7">
      <text style="font-size: 10px; font-family: 'DejaVu Sans'; text-anchor: middle" x="364.798554" y="274.718437" transform="rotate(-0 364.798554 274.718437)">G12</text>
     </g>
    </g>
    <g id="xtick_8">
     <g id="line2d_8">
      <g>
       <use xlink:href="#mfaecddd00d" x="410.010331" y="260.12" style="stroke: #000000; stroke-width: 0.8"/>
      </g>
     </g>
     <g id="text_8">
      <text style="font-size: 10px; font-family: 'DejaVu Sans'; text-anchor: middle" x="410.010331" y="274.718437" transform="rotate(-0 410.010331 274.718437)">G23</text>
     </g>
    </g>
    <g id="xtick_9">
     <g id="line2d_9">
      <g>
       <use xlink:href="#mfaecddd00d" x="455.222107" y="260.12" style="stroke: #000000; stroke-width: 0.8"/>
      </g>
     </g>
     <g id="text_9">
      <text style="font-size: 10px; font-family: 'DejaVu Sans'; text-anchor: middle" x="455.222107" y="274.718437" transform="rotate(-0 455.222107 274.718437)">G13</text>
     </g>
    </g>
   </g>
   <g id="matplotlib.axis_2">
    <g id="ytick_1">
     <g id="line2d_10">
      <path d="M 55.55 260.12 
L 493.2 260.12 
" clip-path="url(#p98c3d38d2f)" style="fill: none; stroke-dasharray: 2.96,1.28; stroke-dashoffset: 0; stroke: #b0b0b0; stroke-opacity: 0.3; stroke-width: 0.8"/>
     </g>
     <g id="line2d_11">
      <defs>
       <path id="m3a288e9725" d="M 0 0 
L -3.5 0 
" style="stroke: #000000; stroke-width: 0.8"/>
      </defs>
      <g>
       <use xlink:href="#m3a288e9725" x="55.55" y="260.12" style="stroke: #000000; stroke-width: 0.8"/>
      </g>
     </g>
     <g id="text_10">
      <text style="font-size: 9px; font-family: 'DejaVu Sans'; text-anchor: end" x="48.55" y="263.539297" transform="rotate(-0 48.55 263.539297)">0</text>
     </g>
    </g>
    <g id="ytick_2">
     <g id="line2d_12">
      <path d="M 55.55 214.733966 
L 493.2 214.733966 
" clip-path="url(#p98c3d38d2f)" style="fill: none; stroke-dasharray: 2.96,1.28; stroke-dashoffset: 0; stroke: #b0b0b0; stroke-opacity: 0.3; stroke-width: 0.8"/>
     </g>
     <g id="line2d_13">
      <g>
       <use xlink:href="#m3a288e9725" x="55.55" y="214.733966" style="stroke: #000000; stroke-width: 0.8"/>
      </g>
     </g>
     <g id="text_11">
      <text style="font-size: 9px; font-family: 'DejaVu Sans'; text-anchor: end" x="48.55" y="218.153263" transform="rotate(-0 48.55 218.153263)">200</text>
     </g>
    </g>
    <g id="ytick_3">
     <g id="line2d_14">
      <path d="M 55.55 169.347932 
L 493.2 169.347932 
" clip-path="url(#p98c3d38d2f)" style="fill: none; stroke-dasharray: 2.96,1.28; stroke-dashoffset: 0; stroke: #b0b0b0; stroke-opacity: 0.3; stroke-width: 0.8"/>
     </g>
     <g id="line2d_15">
      <g>
       <use xlink:href="#m3a288e9725" x="55.55" y="169.347932" style="stroke: #000000; stroke-width: 0.8"/>
      </g>
     </g>
     <g id="text_12">
      <text style="font-size: 9px; font-family: 'DejaVu Sans'; text-anchor: end" x="48.55" y="172.767229" transform="rotate(-0 48.55 172.767229)">400</text>
     </g>
    </g>
    <g id="ytick_4">
     <g id="line2d_16">
      <path d="M 55.55 123.961898 
L 493.2 123.961898 
" clip-path="url(#p98c3d38d2f)" style="fill: none; stroke-dasharray: 2.96,1.28; stroke-dashoffset: 0; stroke: #b0b0b0; stroke-opacity: 0.3; stroke-width: 0.8"/>
     </g>
     <g id="line2d_17">
      <g>
       <use xlink:href="#m3a288e9725" x="55.55" y="123.961898" style="stroke: #000000; stroke-width: 0.8"/>
      </g>
     </g>
     <g id="text_13">
      <text style="font-size: 9px; font-family: 'DejaVu Sans'; text-anchor: end" x="48.55" y="127.381195" transform="rotate(-0 48.55 127.381195)">600</text>
     </g>
    </g>
    <g id="ytick_5">
     <g id="line2d_18">
      <path d="M 55.55 78.575864 
L 493.2 78.575864 
" clip-path="url(#p98c3d38d2f)" style="fill: none; stroke-dasharray: 2.96,1.28; stroke-dashoffset: 0; stroke: #b0b0b0; stroke-opacity: 0.3; stroke-width: 0.8"/>
     </g>
     <g id="line2d_19">
      <g>
       <use xlink:href="#m3a288e9725" x="55.55" y="78.575864" style="stroke: #000000; stroke-width: 0.8"/>
      </g>
     </g>
     <g id="text_14">
      <text style="font-size: 9px; font-family: 'DejaVu Sans'; text-anchor: end" x="48.55" y="81.995161" transform="rotate(-0 48.55 81.995161)">800</text>
     </g>
    </g>
    <g id="ytick_6">
     <g id="line2d_20">
      <path d="M 55.55 33.189831 
L 493.2 33.189831 
" clip-path="url(#p98c3d38d2f)" style="fill: none; stroke-dasharray: 2.96,1.28; stroke-dashoffset: 0; stroke: #b0b0b0; stroke-opacity: 0.3; stroke-width: 0.8"/>
     </g>
     <g id="line2d_21">
      <g>
       <use xlink:href="#m3a288e9725" x="55.55" y="33.189831" style="stroke: #000000; stroke-width: 0.8"/>
      </g>
     </g>
     <g id="text_15">
      <text style="font-size: 9px; font-family: 'DejaVu Sans'; text-anchor: end" x="48.55" y="36.609127" transform="rotate(-0 48.55 36.609127)">1000</text>
     </g>
    </g>
    <g id="text_16">
     <text style="font-size: 11px; font-family: 'DejaVu Sans'; text-anchor: middle" x="19.357344" y="143.5" transform="rotate(-90 19.357344 143.5)">Percentage Error (%)</text>
    </g>
   </g>
   <g id="patch_21">
    <path d="M 55.55 260.12 
L 55.55 26.88 
" style="fill: none; stroke: #000000; stroke-width: 0.9; stroke-linejoin: miter; stroke-linecap: square"/>
   </g>
   <g id="patch_22">
    <path d="M 55.55 260.12 
L 493.2 260.12 
" style="fill: none; stroke: #000000; stroke-width: 0.9; stroke-linejoin: miter; stroke-linecap: square"/>
   </g>
   <g id="text_17">
    <text style="font-size: 12px; font-family: 'DejaVu Sans'; text-anchor: middle" x="274.375" y="20.88" transform="rotate(-0 274.375 20.88)">Elastic constants prediction error</text>
   </g>
   <g id="legend_1">
    <g id="patch_23">
     <path d="M 63.65 41.818594 
L 81.65 41.818594 
L 81.65 35.518594 
L 63.65 35.518594 
z
" style="fill: #1f77b4"/>
    </g>
    <g id="text_18">
     <text style="font-size: 9px; font-family: 'DejaVu Sans'; text-anchor: start" x="88.85" y="41.818594" transform="rotate(-0 88.85 41.818594)">GNN_DMN</text>
    </g>
    <g id="patch_24">
     <path d="M 63.65 55.279219 
L 81.65 55.279219 
L 81.65 48.979219 
L 63.65 48.979219 
z
" style="fill: #ff7f0e"/>
    </g>
    <g id="text_19">
     <text style="font-size: 9px; font-family: 'DejaVu Sans'; text-anchor: start" x="88.85" y="55.279219" transform="rotate(-0 88.85 55.279219)">GNN_IMN</text>
    </g>
   </g>
  </g>
 </g>
 <defs>
  <clipPath id="p98c3d38d2f">
   <rect x="55.55" y="26.88" width="437.65" height="233.24"/>
  </clipPath>
 </defs>
</svg>
