<?xml version="1.0" encoding="utf-8" standalone="no"?>
<!DOCTYPE svg PUBLIC "-//W3C//DTD SVG 1.1//EN"
  "http://www.w3.org/Graphics/SVG/1.1/DTD/svg11.dtd">
<svg xmlns:xlink="http://www.w3.org/1999/xlink" width="504pt" height="288pt" viewBox="0 0 504 288" xmlns="http://www.w3.org/2000/svg" version="1.1">
 <metadata>
  <rdf:RDF xmlns:dc="http://purl.org/dc/elements/1.1/" xmlns:cc="http://creativecommons.org/ns#" xmlns:rdf="http://www.w3.org/1999/02/22-rdf-syntax-ns#">
   <cc:Work>
    <dc:type rdf:resource="http://purl.org/dc/dcmitype/StillImage"/>
    <dc:date>2026-07-07T10:03:23.457407</dc:date>
    <dc:format>image/svg+xml</dc:format>
    <dc:creator>
     <cc:Agent>
      <dc:title>Matplotlib v3.10.7, https://matplotlib.org/</dc:title>
     </cc:Agent>
    </dc:creator>
   </cc:Work>
  </rdf:RDF>
 </metadata>
 <defs>
  <style type="text/css">*{stroke-linejoin: round; stroke-linecap: butt}</style>
 </defs>
 <g id="figure_1">
  <g id="patch_1">
   <path d="M 0 288 
L 504 288 
L 504 0 
L 0 0 
z
" style="fill: #ffffff"/>
  </g>
  <g id="axes_1">
   <g id="patch_2">
    <path d="M 49.79 260.12 
L 493.2 260.12 
L 493.2 26.88 
L 49.79 26.88 
z
" style="fill: #ffffff"/>
   </g>
   <g id="patch_3">
    <path d="M 69.945 260.12 
L 88.267727 260.12 
L 88.267727 251.6395 
L 69.945 251.6395 
z
" clip-path="url(#p33bc229a74)" style="fill: #1f77b4"/>
   </g>
   <g id="patch_4">
    <path d="M 115.751818 260.12 
L 134.074545 260.12 
L 134.074545 252.599955 
L 115.751818 252.599955 
z
" clip-path="url(#p33bc229a74)" style="fill: #1f77b4"/>
   </g>
   <g id="patch_5">
    <path d="M 161.558636 260.12 
L 179.881364 260.12 
L 179.881364 253.247963 
L 161.558636 253.247963 
z
" clip-path="url(#p33bc229a74)" style="fill: #1f77b4"/>
   </g>
   <g id="patch_6">
    <path d="M 207.365455 260.12 
L 225.688182 260.12 
L 225.688182 248.70938 
L 207.365455 248.70938 
z
" clip-path="url(#p33bc229a74)" style="fill: #1f77b4"/>
   </g>
   <g id="patch_7">
    <path d="M 253.172273 260.12 
L 271.495 260.12 
L 271.495 244.146502 
L 253.172273 244.146502 
z
" clip-path="url(#p33bc229a74)" style="fill: #1f77b4"/>
   </g>
   <g id="patch_8">
    <path d="M 298.979091 260.12 
L 317.301818 260.12 
L 317.301818 239.454891 
L 298.979091 239.454891 
z
" clip-path="url(#p33bc229a74)" style="fill: #1f77b4"/>
   </g>
   <g id="patch_9">
    <path d="M 344.785909 260.12 
L 363.108636 260.12 
L 363.108636 37.986667 
L 344.785909 37.986667 
z
" clip-path="url(#p33bc229a74)" style="fill: #1f77b4"/>
   </g>
   <g id="patch_10">
    <path d="M 390.592727 260.12 
L 408.915455 260.12 
L 408.915455 48.708078 
L 390.592727 48.708078 
z
" clip-path="url(#p33bc229a74)" style="fill: #1f77b4"/>
   </g>
   <g id="patch_11">
    <path d="M 436.399545 260.12 
L 454.722273 260.12 
L 454.722273 156.950607 
L 436.399545 156.950607 
z
" clip-path="url(#p33bc229a74)" style="fill: #1f77b4"/>
   </g>
   <g id="patch_12">
    <path d="M 88.267727 260.12 
L 106.590455 260.12 
L 106.590455 258.558697 
L 88.267727 258.558697 
z
" clip-path="url(#p33bc229a74)" style="fill: #ff7f0e"/>
   </g>
   <g id="patch_13">
    <path d="M 134.074545 260.12 
L 152.397273 260.12 
L 152.397273 257.901729 
L 134.074545 257.901729 
z
" clip-path="url(#p33bc229a74)" style="fill: #ff7f0e"/>
   </g>
   <g id="patch_14">
    <path d="M 179.881364 260.12 
L 198.204091 260.12 
L 198.204091 258.066215 
L 179.881364 258.066215 
z
" clip-path="url(#p33bc229a74)" style="fill: #ff7f0e"/>
   </g>
   <g id="patch_15">
    <path d="M 225.688182 260.12 
L 244.010909 260.12 
L 244.010909 257.14416 
L 225.688182 257.14416 
z
" clip-path="url(#p33bc229a74)" style="fill: #ff7f0e"/>
   </g>
   <g id="patch_16">
    <path d="M 271.495 260.12 
L 289.817727 260.12 
L 289.817727 255.368258 
L 271.495 255.368258 
z
" clip-path="url(#p33bc229a74)" style="fill: #ff7f0e"/>
   </g>
   <g id="patch_17">
    <path d="M 317.301818 260.12 
L 335.624545 260.12 
L 335.624545 252.955792 
L 317.301818 252.955792 
z
" clip-path="url(#p33bc229a74)" style="fill: #ff7f0e"/>
   </g>
   <g id="patch_18">
    <path d="M 363.108636 260.12 
L 381.431364 260.12 
L 381.431364 256.450372 
L 363.108636 256.450372 
z
" clip-path="url(#p33bc229a74)" style="fill: #ff7f0e"/>
   </g>
   <g id="patch_19">
    <path d="M 408.915455 260.12 
L 427.238182 260.12 
L 427.238182 256.369371 
L 408.915455 256.369371 
z
" clip-path="url(#p33bc229a74)" style="fill: #ff7f0e"/>
   </g>
   <g id="patch_20">
    <path d="M 454.722273 260.12 
L 473.045 260.12 
L 473.045 254.778521 
L 454.722273 254.778521 
z
" clip-path="url(#p33bc229a74)" style="fill: #ff7f0e"/>
   </g>
   <g id="matplotlib.axis_1">
    <g id="xtick_1">
     <g id="line2d_1">
      <defs>
       <path id="mde22735a10" d="M 0 0 
L 0 3.5 
" style="stroke: #000000; stroke-width: 0.8"/>
      </defs>
      <g>
       <use xlink:href="#mde22735a10" x="88.267727" y="260.12" style="stroke: #000000; stroke-width: 0.8"/>
      </g>
     </g>
     <g id="text_1">
      <text style="font-size: 10px; font-family: 'DejaVu Sans'; text-anchor: middle" x="88.267727" y="274.718437" transform="rotate(-0 88.267727 274.718437)">E1</text>
     </g>
    </g>
    <g id="xtick_2">
     <g id="line2d_2">
      <g>
       <use xlink:href="#mde22735a10" x="134.074545" y="260.12" style="stroke: #000000; stroke-width: 0.8"/>
      </g>
     </g>
     <g id="text_2">
      <text style="font-size: 10px; font-family: 'DejaVu Sans'; text-anchor: middle" x="134.074545" y="274.718437" transform="rotate(-0 134.074545 274.718437)">E2</text>
     </g>
    </g>
    <g id="xtick_3">
     <g id="line2d_3">
      <g>
       <use xlink:href="#mde22735a10" x="179.881364" y="260.12" style="stroke: #000000; stroke-width: 0.8"/>
      </g>
     </g>
     <g id="text_3">
      <text style="font-size: 10px; font-family: 'DejaVu Sans'; text-anchor: middle" x="179.881364" y="274.718437" transform="rotate(-0 179.881364 274.718437)">E3</text>
     </g>
    </g>
    <g id="xtick_4">
     <g id="line2d_4">
      <g>
       <use xlink:href="#mde22735a10" x="225.688182" y="260.12" style="stroke: #000000; stroke-width: 0.8"/>
      </g>
     </g>
     <g id="text_4">
      <text style="font-size: 10px; font-family: 'DejaVu Sans'; text-anchor: middle" x="225.688182" y="274.718437" transform="rotate(-0 225.688182 274.718437)">nu12</text>
     </g>
    </g>
    <g id="xtick_5">
     <g id="line2d_5">
      <g>
       <use xlink:href="#mde22735a10" x="271.495" y="260.12" style="stroke: #000000; stroke-width: 0.8"/>
      </g>
     </g>
     <g id="text_5">
      <text style="font-size: 10px; font-family: 'DejaVu Sans'; text-anchor: middle" x="271.495" y="274.718437" transform="rotate(-0 271.495 274.718437)">nu13</text>
     </g>
    </g>
    <g id="xtick_6">
     <g id="line2d_6">
      <g>
       <use xlink:href="#mde22735a10" x="317.301818" y="260.12" style="stroke: #000000; stroke-width: 0.8"/>
      </g>
     </g>
     <g id="text_6">
      <text style="font-size: 10px; font-family: 'DejaVu Sans'; text-anchor: middle" x="317.301818" y="274.718437" transform="rotate(-0 317.301818 274.718437)">nu23</text>
     </g>
    </g>
    <g id="xtick_7">
     <g id="line2d_7">
      <g>
       <use xlink:href="#mde22735a10" x="363.108636" y="260.12" style="stroke: #000000; stroke-width: 0.8"/>
      </g>
     </g>
     <g id="text_7">
      <text style="font-size: 10px; font-family: 'DejaVu Sans'; text-anchor: middle" x="363.108636" y="274.718437" transform="rotate(-0 363.108636 274.718437)">G12</text>
     </g>
    </g>
    <g id="xtick_8">
     <g id="line2d_8">
      <g>
       <use xlink:href="#mde22735a10" x="408.915455" y="260.12" style="stroke: #000000; stroke-width: 0.8"/>
      </g>
     </g>
     <g id="text_8">
      <text style="font-size: 10px; font-family: 'DejaVu Sans'; text-anchor: middle" x="408.915455" y="274.718437" transform="rotate(-0 408.915455 274.718437)">G23</text>
     </g>
    </g>
    <g id="xtick_9">
     <g id="line2d_9">
      <g>
       <use xlink:href="#mde22735a10" x="454.722273" y="260.12" style="stroke: #000000; stroke-width: 0.8"/>
      </g>
     </g>
     <g id="text_9">
      <text style="font-size: 10px; font-family: 'DejaVu Sans'; text-anchor: middle" x="454.722273" y="274.718437" transform="rotate(-0 454.722273 274.718437)">G13</text>
     </g>
    </g>
   </g>
   <g id="matplotlib.axis_2">
    <g id="ytick_1">
     <g id="line2d_10">
      <path d="M 49.79 260.12 
L 493.2 260.12 
" clip-path="url(#p33bc229a74)" style="fill: none; stroke-dasharray: 2.96,1.28; stroke-dashoffset: 0; stroke: #b0b0b0; stroke-opacity: 0.3; stroke-width: 0.8"/>
     </g>
     <g id="line2d_11">
      <defs>
       <path id="m6aa66b63a1" d="M 0 0 
L -3.5 0 
" style="stroke: #000000; stroke-width: 0.8"/>
      </defs>
      <g>
       <use xlink:href="#m6aa66b63a1" x="49.79" y="260.12" style="stroke: #000000; stroke-width: 0.8"/>
      </g>
     </g>
     <g id="text_10">
      <text style="font-size: 9px; font-family: 'DejaVu Sans'; text-anchor: end" x="42.79" y="263.539297" transform="rotate(-0 42.79 263.539297)">0</text>
     </g>
    </g>
    <g id="ytick_2">
     <g id="line2d_12">
      <path d="M 49.79 210.379265 
L 493.2 210.379265 
" clip-path="url(#p33bc229a74)" style="fill: none; stroke-dasharray: 2.96,1.28; stroke-dashoffset: 0; stroke: #b0b0b0; stroke-opacity: 0.3; stroke-width: 0.8"/>
     </g>
     <g id="line2d_13">
      <g>
       <use xlink:href="#m6aa66b63a1" x="49.79" y="210.379265" style="stroke: #000000; stroke-width: 0.8"/>
      </g>
     </g>
     <g id="text_11">
      <text style="font-size: 9px; font-family: 'DejaVu Sans'; text-anchor: end" x="42.79" y="213.798562" transform="rotate(-0 42.79 213.798562)">100</text>
     </g>
    </g>
    <g id="ytick_3">
     <g id="line2d_14">
      <path d="M 49.79 160.638531 
L 493.2 160.638531 
" clip-path="url(#p33bc229a74)" style="fill: none; stroke-dasharray: 2.96,1.28; stroke-dashoffset: 0; stroke: #b0b0b0; stroke-opacity: 0.3; stroke-width: 0.8"/>
     </g>
     <g id="line2d_15">
      <g>
       <use xlink:href="#m6aa66b63a1" x="49.79" y="160.638531" style="stroke: #000000; stroke-width: 0.8"/>
      </g>
     </g>
     <g id="text_12">
      <text style="font-size: 9px; font-family: 'DejaVu Sans'; text-anchor: end" x="42.79" y="164.057828" transform="rotate(-0 42.79 164.057828)">200</text>
     </g>
    </g>
    <g id="ytick_4">
     <g id="line2d_16">
      <path d="M 49.79 110.897796 
L 493.2 110.897796 
" clip-path="url(#p33bc229a74)" style="fill: none; stroke-dasharray: 2.96,1.28; stroke-dashoffset: 0; stroke: #b0b0b0; stroke-opacity: 0.3; stroke-width: 0.8"/>
     </g>
     <g id="line2d_17">
      <g>
       <use xlink:href="#m6aa66b63a1" x="49.79" y="110.897796" style="stroke: #000000; stroke-width: 0.8"/>
      </g>
     </g>
     <g id="text_13">
      <text style="font-size: 9px; font-family: 'DejaVu Sans'; text-anchor: end" x="42.79" y="114.317093" transform="rotate(-0 42.79 114.317093)">300</text>
     </g>
    </g>
    <g id="ytick_5">
     <g id="line2d_18">
      <path d="M 49.79 61.157062 
L 493.2 61.157062 
" clip-path="url(#p33bc229a74)" style="fill: none; stroke-dasharray: 2.96,1.28; stroke-dashoffset: 0; stroke: #b0b0b0; stroke-opacity: 0.3; stroke-width: 0.8"/>
     </g>
     <g id="line2d_19">
      <g>
       <use xlink:href="#m6aa66b63a1" x="49.79" y="61.157062" style="stroke: #000000; stroke-width: 0.8"/>
      </g>
     </g>
     <g id="text_14">
      <text style="font-size: 9px; font-family: 'DejaVu Sans'; text-anchor: end" x="42.79" y="64.576358" transform="rotate(-0 42.79 64.576358)">400</text>
     </g>
    </g>
    <g id="text_15">
     <text style="font-size: 11px; font-family: 'DejaVu Sans'; text-anchor: middle" x="19.323594" y="143.5" transform="rotate(-90 19.323594 143.5)">Percentage Error (%)</text>
    </g>
   </g>
   <g id="patch_21">
    <path d="M 49.79 260.12 
L 49.79 26.88 
" style="fill: none; stroke: #000000; stroke-width: 0.9; stroke-linejoin: miter; stroke-linecap: square"/>
   </g>
   <g id="patch_22">
    <path d="M 49.79 260.12 
L 493.2 260.12 
" style="fill: none; stroke: #000000; stroke-width: 0.9; stroke-linejoin: miter; stroke-linecap: square"/>
   </g>
   <g id="text_16">
    <text style="font-size: 12px; font-family: 'DejaVu Sans'; text-anchor: middle" x="271.495" y="20.88" transform="rotate(-0 271.495 20.88)">Elastic constants prediction error</text>
   </g>
   <g id="legend_1">
    <g id="patch_23">
     <path d="M 413.531719 41.818594 
L 431.531719 41.818594 
L 431.531719 35.518594 
L 413.531719 35.518594 
z
" style="fill: #1f77b4"/>
    </g>
    <g id="text_17">
     <text style="font-size: 9px; font-family: 'DejaVu Sans'; text-anchor: start" x="438.731719" y="41.818594" transform="rotate(-0 438.731719 41.818594)">GNN_DMN</text>
    </g>
    <g id="patch_24">
     <path d="M 413.531719 55.279219 
L 431.531719 55.279219 
L 431.531719 48.979219 
L 413.531719 48.979219 
z
" style="fill: #ff7f0e"/>
    </g>
    <g id="text_18">
     <text style="font-size: 9px; font-family: 'DejaVu Sans'; text-anchor: start" x="438.731719" y="55.279219" transform="rotate(-0 438.731719 55.279219)">GNN_IMN</text>
    </g>
   </g>
  </g>
 </g>
 <defs>
  <clipPath id="p33bc229a74">
   <rect x="49.79" y="26.88" width="443.41" height="233.24"/>
  </clipPath>
 </defs>
</svg>
